<svg xmlns="http://www.w3.org/2000/svg" width="90" height="35" viewBox="0 0 90 35">    <g fill="#00428A" fill-rule="nonzero" transform="translate(4 6)">        <path d="M.122 9.164v1.093H1.82v4.136h1.266V10.25h1.74V9.164z"/>        <circle cx="7.056" cy="8.178" r="1"/>        <circle cx="8.912" cy="8.178" r="1"/>        <path d="M17.22 9.164V14.4h1.201v-1.568l.95-.95 1.633 2.518h1.438l-2.194-3.43 1.74-1.806h-1.452l-2.115 2.244V9.164zM23.09 9.178h1.23v5.215h-1.23z"/>        <circle cx="23.708" cy="8.193" r="1"/>        <path d="M39.482 3.69v.295s.784.036.784.74V9.61l2.007 1.13V4.696s-.036-.712.77-.712V3.69h-3.56z"/>        <path d="M42.503 5.43v.475s1.82.756 1.935 2.914h.31V5.438h-.274s-.18.46-.662.46c-.481 0-1.309-.467-1.309-.467zM40.029 5.25v.418s-1.813.28-1.813 1.906c0 0-.144 1.295 2.05 2.41l2.72 1.496s1.956.885 2.56 2.467c.597 1.583.209 3.69-1.784 4.697-.813.417-1.54.453-1.798.49 0 0 .662.33.662 1.129 0 .805-.892 2.042-1.28 2.05h-.23s-.037-.044.085-.18c.115-.137.67-.791.533-1.173 0 0-.317.144-.64.144a.97.97 0 0 1-.928-.992c0-.72.546-1.015.74-1.015 0 0-.309-.036-1.28-.38-.97-.353-1.726-.691-2.222.15h-.26v-3.582h.317s.72 3.41 4.251 3.41c2.446-.008 2.74-2.036 2.74-2.403 0-.374 0-1.51-1.826-2.546-1.827-1.036-3.575-1.993-3.575-1.993s-2.043-.95-2.043-3.2c.007-2.266 2.071-3.302 3.02-3.302z"/>        <path d="M40.26 12.724l1.999 1.13v2.316s-.029.698.777.698v.309h-3.568v-.338s.784.014.784-.72c0-.733.007-3.395.007-3.395zM24.801 9.164h1.432l1.46 2.2 1.503-2.186h1.389l-2.31 3.136V14.4H27.09v-2.086zM30.987 9.157h4.187v1.064h-2.978v.9H33.9v1h-1.705v1.244h3.1V14.4H30.98z"/>        <circle cx="41.259" cy="1.82" r="1.108"/>        <path d="M51.394 11.574c-.022 0 .676-.223.676-1.087 0-.863-.82-1.316-1.849-1.316-1.028 0-2.805-.007-2.805-.007v5.222h2.92s1.957-.007 1.957-1.683c0-.942-.878-1.13-.9-1.13zm-2.805-1.418h1.747c.569 0 .526.475.526.475 0 .497-.49.497-.49.497H48.59v-.972zm1.776 3.245h-1.77v-1.353h1.749s.69.05.69.69c-.007.634-.669.663-.669.663zM55.947 9.171h-1.194l-2.302 5.215h1.28l.483-1.144h2.172l.489 1.158h1.345l-2.273-5.229zm-1.338 3.057l.705-1.784.712 1.784H54.61zM58.716 9.157v5.258h1.18V11.04l2.597 3.367h1.086V9.17h-1.223v3.33l-2.525-3.337zM72.858 9.164h-1.166L69.6 13.897 67.7 10.99l1.806-1.82h-1.482l-2.143 2.28V9.164h-1.216v5.23h1.216v-1.526l.949-.97 1.626 2.495h2.193l.475-1.15h2.194l.46 1.15h1.338l-2.258-5.23zm-1.31 3.107l.706-1.784.704 1.784h-1.41zM78.742 10.674l.884-.755s-.848-.834-2.143-.834-2.187.654-2.187 1.568c0 .913.712 1.295 1.906 1.525 1.187.23 1.424.46 1.324.863-.1.403-.928.439-1.18.424-.252-.021-.813-.029-1.38-.611l-.886.712s.835.928 2.302.928 2.36-.568 2.381-1.655c.022-1.086-.849-1.366-1.798-1.596l-.971-.202s-.432-.108-.432-.453c0-.345.345-.475.914-.475.568 0 1.258.425 1.266.561zM80.676 9.171h1.202v5.222h-1.202zM5.531 9.164h1.223v3.093s.036 1.201 1.201 1.201c1.166 0 1.245-1.208 1.245-1.208V9.164h1.208v2.956s.094 2.345-2.395 2.345-2.482-2.071-2.482-2.338V9.164zM15.156 12.38s1.136-.274 1.136-1.511c0-1.23-1.028-1.705-1.827-1.705h-3.014v5.222h1.18v-1.87h1.223l1.086 1.87h1.374l-1.158-2.007zm-.777-.82h-1.74v-1.39h1.711s.72.008.72.684c-.008.684-.691.705-.691.705z"/>    </g></svg>